<svg width="20" height="20" viewBox="0 0 20 20" fill="none" xmlns="http://www.w3.org/2000/svg">
<path fill-rule="evenodd" clip-rule="evenodd" d="M3 3.5H17C17.6497 3.5 18.203 3.91311 18.4114 4.49099L11.2481 9.26656C10.4923 9.77041 9.5077 9.77041 8.75192 9.26656L1.58857 4.49099C1.79701 3.91311 2.35026 3.5 3 3.5ZM1.5 6.23472V15C1.5 15.8284 2.17157 16.5 3 16.5H17C17.8284 16.5 18.5 15.8284 18.5 15V6.23472L12.0801 10.5146C10.8205 11.3544 9.1795 11.3544 7.91987 10.5146L1.5 6.23472ZM0 5C0 3.34315 1.34315 2 3 2H17C18.6569 2 20 3.34315 20 5V15C20 16.6569 18.6569 18 17 18H3C1.34315 18 0 16.6569 0 15V5Z" fill="#000B26" fill-opacity="0.32"/>
</svg>
